<?xml version="1.0" encoding="utf-8"?>
<!-- Generator: Adobe Illustrator 16.0.0, SVG Export Plug-In . SVG Version: 6.00 Build 0)  -->
<!DOCTYPE svg PUBLIC "-//W3C//DTD SVG 1.1//EN" "http://www.w3.org/Graphics/SVG/1.1/DTD/svg11.dtd">
<svg version="1.1" id="图层_1" xmlns="http://www.w3.org/2000/svg" xmlns:xlink="http://www.w3.org/1999/xlink" x="0px" y="0px"
	 width="640px" height="640px" viewBox="-288 -288 640 640" enable-background="new -288 -288 640 640" xml:space="preserve">
<path fill="#00AEEF" d="M16.641,264.758c5.41-0.078,10.03,3.906,10.674,9.375c0.576,5.742-3.545,10.977-9.366,11.66l-79.517,9.043
	c-0.41,0.039-0.781,0.039-1.172,0.039c-5.313,0-9.839-3.945-10.488-9.355c-0.664-5.742,3.516-10.957,9.277-11.621l79.502-9.082
	C15.909,264.777,16.28,264.758,16.641,264.758z M42.511,225.89c5.332-0.039,9.961,4.004,10.547,9.434
	c0.625,5.782-3.535,11.017-9.336,11.622l-131.1,14.59c-0.371,0-0.762,0.039-1.172,0.039c-5.288,0-9.858-3.984-10.449-9.395
	c-0.64-5.723,3.54-10.957,9.321-11.563l131.115-14.63C41.788,225.929,42.159,225.909,42.511,225.89z M42.511,190.245
	c5.332,0,9.961,4.063,10.547,9.434c0.625,5.801-3.535,11.055-9.336,11.621l-131.1,14.629c-0.371,0.039-0.762,0.039-1.172,0.039
	c-5.269,0-9.858-4.004-10.449-9.414c-0.64-5.781,3.54-10.996,9.321-11.602l131.115-14.648
	C41.788,190.265,42.159,190.245,42.511,190.245z M-28.101-149.636c-55.25,0-99.928,44.683-99.928,99.913
	c0,6.401,5.21,11.567,11.607,11.567c6.392,0,11.621-5.181,11.621-11.567c0-21.211,8.501-40.362,22.402-54.283
	c13.946-13.921,33.047-22.441,54.297-22.441c6.412,0,11.563-5.229,11.563-11.626C-16.538-144.465-21.728-149.636-28.101-149.636z
	 M-22.958-186.794c81.368,0,147.384,65.708,147.384,146.607c0,53.545-49.317,103.361-49.317,103.361
	c-12.324,12.354-22.441,36.914-22.441,54.443v4.531c0,17.539-14.346,31.905-31.885,31.905h-87.491
	c-17.559,0-31.89-14.386-31.89-31.905v-4.531c0-17.529-10.122-42.09-22.412-54.443c0,0-49.351-49.815-49.351-103.361
	C-170.372-121.086-104.39-186.794-22.958-186.794z"/>
<g>
	<path fill="#00AEEF" d="M237.649-194.437c-1.816,6.47-13.359,21.48-34.648,45.03c-13.927,15.44-27.94,30.923-42.032,46.46
		c4.629,2.163,10.039,4.121,16.25,5.859c7.539,2.114,14.795,3.491,21.738,4.121c0.469,4.063,0.273,7.583-0.557,10.542
		c-0.117,0.41-0.361,1.06-0.771,1.958c-5.82,1.572-15.391,0.493-28.75-3.257c-4.717-1.323-9.688-3.292-14.902-5.923
		c-6.367-3.228-10.664-6.27-12.949-9.077c4.121-6.411,19.219-24.204,45.283-53.394c24.386-27.329,36.935-42.281,37.667-44.839
		c0.898-3.232-0.801-6.538-5.078-9.922c-3.32-2.676-6.924-4.561-10.84-5.659c-14.435-4.038-33.321-2.28-56.661,5.283
		c-1.953-4.473-2.793-8.501-2.52-12.051c8.828-4.502,19.141-7.583,30.938-9.214c12.52-1.577,23.224-1.128,32.11,1.362
		c9.043,2.539,15.947,6.221,20.684,11.04C238.353-210.154,240.032-202.913,237.649-194.437z"/>
</g>
</svg>
